<?xml version="1.0" encoding="utf-8"?>
<!-- Generator: Adobe Illustrator 25.1.0, SVG Export Plug-In . SVG Version: 6.00 Build 0)  -->
<svg version="1.1" id="Слой_1" xmlns="http://www.w3.org/2000/svg" xmlns:xlink="http://www.w3.org/1999/xlink" x="0px" y="0px"
	 viewBox="0 0 595.3 595.3" style="enable-background:new 0 0 595.3 595.3;" xml:space="preserve">
<style type="text/css">
	.st0{fill:url(#SVGID_1_);}
	.st1{fill:#120823;}
</style>
<radialGradient id="SVGID_1_" cx="293.4878" cy="340.9434" r="717.5433" gradientUnits="userSpaceOnUse">
	<stop  offset="0" style="stop-color:#870D81"/>
	<stop  offset="6.267214e-02" style="stop-color:#991C74"/>
	<stop  offset="0.2029" style="stop-color:#CB4C47"/>
	<stop  offset="0.3136" style="stop-color:#F77B11"/>
</radialGradient>
<circle class="st0" cx="295.7" cy="341.4" r="204.5"/>
<path class="st1" d="M527.2,18.4c-6.8-9.6-21.7-5.2-22.2,6.6c-2,48.2-17.7,88.7-60,114.3c-41.1-30.8-92.1-49.1-147.4-49.1
	s-106.3,18.3-147.4,49.1c-42.3-25.7-58-66.2-60-114.3c-0.5-11.7-15.4-16.2-22.2-6.6c-53.9,76.2-39.1,150,2.7,222.7
	c-12.3,29.2-19,61.3-19,95c0,135.8,110.1,245.9,245.9,245.9S543.5,472,543.5,336.2c0-33.7-6.8-65.8-19-95
	C566.4,168.4,581.1,94.7,527.2,18.4z M102.1,298.1c0-18.8,6.8-36,18.1-49.4c49.4,29.1,95.9,52.5,134,59
	c-4.8,37.6-36.8,66.7-75.7,66.7C136.3,374.5,102.1,340.3,102.1,298.1z M357.1,479.5c8.7,4.9,11.8,16,6.9,24.7v0
	c-4.9,8.7-16,11.8-24.7,6.9l-41.6-23.4L256,511.1c-8.7,4.9-19.8,1.8-24.7-6.9l0,0c-4.9-8.7-1.8-19.8,6.9-24.7l22.5-12.6l-22.5-12.6
	c-8.7-4.9-11.8-16-6.9-24.7l0,0c4.9-8.7,16-11.8,24.7-6.9l41.6,23.4l41.6-23.4c8.7-4.9,19.8-1.8,24.7,6.9v0
	c4.9,8.7,1.8,19.8-6.9,24.7l-22.5,12.6L357.1,479.5z M416.8,374.5c-38.9,0-71-29.1-75.7-66.7c38.1-6.5,84.6-29.9,134-59
	c11.3,13.3,18.1,30.5,18.1,49.4C493.1,340.3,458.9,374.5,416.8,374.5z"/>
</svg>
